<mxfile host="app.diagrams.net" agent="Mozilla/5.0 (Macintosh; Intel Mac OS X 10_15_7) AppleWebKit/537.36 (KHTML, like Gecko) Chrome/129.0.0.0 Safari/537.36" version="24.8.0">
  <diagram name="第 1 页" id="sLZdJ2d69jqGa44528aF">
    <mxGraphModel dx="1026" dy="650" grid="1" gridSize="10" guides="1" tooltips="1" connect="1" arrows="1" fold="1" page="1" pageScale="1" pageWidth="827" pageHeight="1169" math="0" shadow="0">
      <root>
        <mxCell id="0" />
        <mxCell id="1" parent="0" />
        <mxCell id="W3-rOdiWnFIIdeP9mUjL-3" value="" style="edgeStyle=orthogonalEdgeStyle;rounded=0;orthogonalLoop=1;jettySize=auto;html=1;" edge="1" parent="1" source="W3-rOdiWnFIIdeP9mUjL-1" target="W3-rOdiWnFIIdeP9mUjL-2">
          <mxGeometry relative="1" as="geometry" />
        </mxCell>
        <mxCell id="W3-rOdiWnFIIdeP9mUjL-1" value="标签规则记录查询" style="ellipse;whiteSpace=wrap;html=1;" vertex="1" parent="1">
          <mxGeometry x="200" y="140" width="120" height="60" as="geometry" />
        </mxCell>
        <mxCell id="W3-rOdiWnFIIdeP9mUjL-5" value="" style="edgeStyle=orthogonalEdgeStyle;rounded=0;orthogonalLoop=1;jettySize=auto;html=1;" edge="1" parent="1" source="W3-rOdiWnFIIdeP9mUjL-2" target="W3-rOdiWnFIIdeP9mUjL-4">
          <mxGeometry relative="1" as="geometry" />
        </mxCell>
        <mxCell id="W3-rOdiWnFIIdeP9mUjL-2" value="校验标签是否存在" style="rhombus;whiteSpace=wrap;html=1;" vertex="1" parent="1">
          <mxGeometry x="205" y="250" width="110" height="70" as="geometry" />
        </mxCell>
        <mxCell id="W3-rOdiWnFIIdeP9mUjL-7" value="" style="edgeStyle=orthogonalEdgeStyle;rounded=0;orthogonalLoop=1;jettySize=auto;html=1;" edge="1" parent="1" source="W3-rOdiWnFIIdeP9mUjL-4" target="W3-rOdiWnFIIdeP9mUjL-6">
          <mxGeometry relative="1" as="geometry" />
        </mxCell>
        <mxCell id="W3-rOdiWnFIIdeP9mUjL-4" value="查询标签规则表" style="shape=process;whiteSpace=wrap;html=1;backgroundOutline=1;" vertex="1" parent="1">
          <mxGeometry x="200" y="380" width="120" height="60" as="geometry" />
        </mxCell>
        <mxCell id="W3-rOdiWnFIIdeP9mUjL-6" value="根据时间倒序封装返回" style="rounded=1;whiteSpace=wrap;html=1;" vertex="1" parent="1">
          <mxGeometry x="195" y="505" width="130" height="60" as="geometry" />
        </mxCell>
      </root>
    </mxGraphModel>
  </diagram>
</mxfile>
